<?xml version="1.0" encoding="utf-8"?>
<!-- Generator: Adobe Illustrator 22.1.0, SVG Export Plug-In . SVG Version: 6.00 Build 0)  -->
<svg version="1.1" id="Layer_1" xmlns="http://www.w3.org/2000/svg" xmlns:xlink="http://www.w3.org/1999/xlink" x="0px" y="0px"
	 viewBox="0 0 256 67" style="enable-background:new 0 0 256 67;" xml:space="preserve">
<style type="text/css">
	.st0{fill:#2FB9E1;}
	.st1{fill:#B6FF38;}
	.st2{fill:#FFFFFF;}
	.st3{fill:#0006DF;}
	.st4{fill:#B64E38;}
</style>
<path class="st0" d="M104,40.3c4.7-4.1,6.9-10.1,5.5-15.6c-1-3.8-4.1-9.1-9.7-10.1c-3.6-0.7-6.6,0.7-7.8,1.4
	c-0.7-2.1-2.1-5.5-5.1-8.7c-5.7-6.2-13.3-6.9-16.3-7.3c-2.3-0.3-5-0.5-8.3,0.4c-5.2,1.4-8.5,4.8-9.9,6.4C47,2.7,40.1,2.2,35.6,5.4
	c-4.3,3-5.2,8.6-5.3,9.2c-0.4,2.3-0.1,4.3,0.2,5.5c-0.6-0.2-4.6-1.3-8.1,0.9c-3.7,2.4-4,6.7-4.1,8.3c0,0.7-0.4,8,5.5,12
	c4.6,3.1,11,2.8,15.6-0.9c4.4,1.8,7.9,6.8,15,7.6c4.1,0.5,9.9-5.7,11-5.8c1.5,0,7.4,3.5,11.1,2.9c3.3-0.5,5-1.9,9.9-3.8
	c0.9,0.9,3,2.6,6,3.2C98.8,45.7,103.6,40.8,104,40.3z"/>
<path class="st0" d="M13.3,42.1c-0.4,0.5-2,2.5-1.5,5.2c0.5,3.1,3.2,4.6,3.7,4.9c3.8,2.1,8.7,0.2,9.2-1.8c0.3-1.3,0.9-2.4-1.7-6.6
	c-1.9-3-3.2-3.2-4.6-3.2C16.6,40.5,13.6,41.9,13.3,42.1z"/>
<path class="st1" d="M6,56c-0.2,1-0.3,2.8,0.9,3.7c1,0.7,2.3,0.4,2.8,0.3c0.2-0.1,3.1-0.8,3.4-3.2c0.2-1.9-1.1-3.9-3.1-4.1
	C7.8,52.4,6.4,54.5,6,56z"/>
<g>
	<path class="st2" d="M65.8,28.6h-6.1v-0.6c0-1,0.1-1.9,0.4-2.5c0.2-0.7,0.6-1.2,1.1-1.8c0.5-0.5,1.5-1.5,3.2-2.8
		c0.9-0.7,1.3-1.4,1.3-2c0-0.6-0.2-1.1-0.5-1.4c-0.4-0.3-0.9-0.5-1.6-0.5c-0.8,0-1.4,0.3-1.9,0.8s-0.8,1.4-1,2.7l-6.3-0.8
		c0.2-2.3,1.1-4.2,2.5-5.6c1.5-1.4,3.7-2.1,6.7-2.1c2.4,0,4.2,0.5,5.7,1.5c2,1.3,2.9,3.1,2.9,5.3c0,0.9-0.3,1.8-0.8,2.7
		c-0.5,0.9-1.5,1.9-3.1,3.1c-1.1,0.9-1.8,1.6-2.1,2.1C65.9,27,65.8,27.7,65.8,28.6z M59.4,30.2H66V36h-6.6V30.2z"/>
</g>
<path class="st3" d="M148.3,16.4"/>
<path class="st4" d="M1.5,61.8c-0.6,0.6-0.6,1.9,0,2.8c0.7,1,2,1.3,3.1,0.8C5.5,64.9,6,63.8,5.8,63C5.5,61.5,2.6,60.7,1.5,61.8z"/>
<g>
	<path class="st2" d="M118.9,47.8c0,0.8,0.1,1.5,0.1,1.7h-0.9c-0.1-0.2-0.1-0.6-0.2-1.4c-0.3,0.7-1.1,1.6-3,1.6
		c-2.1,0-3.1-1.4-3.1-2.8c0-2,1.6-2.9,4.3-2.9c0.8,0,1.4,0,1.7,0v-0.9c0-0.9-0.3-2.2-2.4-2.2c-1.9,0-2.1,1-2.3,1.7h-0.9
		c0.1-1,0.7-2.6,3.3-2.6c2.1,0,3.3,0.9,3.3,2.9V47.8z M118,44.9c-0.3,0-1.2,0-1.8,0c-2,0-3.3,0.5-3.3,2.1c0,1.2,0.8,2,2.1,2
		c2.6,0,3-1.7,3-3.7V44.9z"/>
	<path class="st2" d="M121.9,49.6V36h0.9v13.6H121.9z"/>
	<path class="st2" d="M125.7,40.4c1.4,4.7,2.2,7.5,2.3,8.3h0c0.1-0.7,1.1-3.6,2.5-8.3h1c1.7,5.7,2.2,7.3,2.4,8h0
		c0.3-1,0.7-2.4,2.4-8h1l-2.9,9.2h-1c-1-3.3-2.2-7.2-2.4-8.1h0c-0.2,0.9-1.2,4.2-2.4,8.1h-1.1l-2.7-9.2H125.7z"/>
	<path class="st2" d="M145.4,47.8c0,0.8,0.1,1.5,0.1,1.7h-0.9c-0.1-0.2-0.1-0.6-0.2-1.4c-0.3,0.7-1.1,1.6-3,1.6
		c-2.1,0-3.1-1.4-3.1-2.8c0-2,1.6-2.9,4.3-2.9c0.8,0,1.4,0,1.7,0v-0.9c0-0.9-0.3-2.2-2.4-2.2c-1.9,0-2.1,1-2.3,1.7h-0.9
		c0.1-1,0.7-2.6,3.3-2.6c2.1,0,3.3,0.9,3.3,2.9V47.8z M144.5,44.9c-0.3,0-1.2,0-1.8,0c-2,0-3.3,0.5-3.3,2.1c0,1.2,0.8,2,2.1,2
		c2.6,0,3-1.7,3-3.7V44.9z"/>
	<path class="st2" d="M148.1,40.4c1.9,5.3,2.7,7.4,3,8.4h0c0.4-1.1,1.1-3.3,2.9-8.4h1l-3.5,9.7c-1,2.7-1.6,3.3-3.3,3.3
		c-0.3,0-0.6,0-0.8-0.1v-0.9c0.3,0,0.5,0.1,0.8,0.1c1.3,0,1.7-0.6,2.4-2.5l-3.5-9.6H148.1z"/>
	<path class="st2" d="M156.9,47c0.3,1.2,1.2,1.9,2.6,1.9c1.6,0,2.3-0.8,2.3-1.8c0-1-0.4-1.6-2.5-2.1c-2.4-0.6-3-1.3-3-2.5
		c0-1.3,1-2.4,3-2.4c2.1,0,3.1,1.3,3.2,2.6h-0.9c-0.2-0.8-0.8-1.7-2.3-1.7c-1.6,0-2.1,0.8-2.1,1.5c0,0.8,0.4,1.3,2.3,1.7
		c2.6,0.6,3.2,1.5,3.2,2.9c0,1.7-1.4,2.7-3.3,2.7c-2.1,0-3.3-1.1-3.5-2.8H156.9z"/>
	<path class="st2" d="M169.9,36h0.9v5.9c0.4-0.9,1.3-1.8,3.1-1.8c2.2,0,3.8,1.8,3.8,4.6c0,2.9-1.4,5-4,5c-1.5,0-2.4-0.6-2.9-1.7
		c0,0.6,0,1.2,0,1.5h-0.9c0-1,0-2.1,0-3.1V36z M176.8,44.8c0-2.3-1.1-3.8-2.9-3.8c-2.3,0-3.1,1.6-3.1,4c0,2.2,0.7,3.9,3,3.9
		C175.6,48.9,176.8,47.4,176.8,44.8z"/>
	<path class="st2" d="M180.3,45.1c0,2.4,1.2,3.8,3,3.8c1.7,0,2.3-1,2.6-1.7h0.9c-0.4,1.2-1.4,2.6-3.6,2.6c-2.8,0-3.9-2.4-3.9-4.7
		c0-2.6,1.3-4.9,4-4.9c2.8,0,3.7,2.4,3.7,4.2c0,0.3,0,0.5,0,0.8H180.3z M186.2,44.3c0-1.8-1-3.3-2.8-3.3c-1.9,0-2.8,1.3-3,3.3H186.2
		z"/>
	<path class="st2" d="M200.9,46.9c-0.4,1.6-1.5,2.9-3.6,2.9c-2.3,0-3.9-1.7-3.9-4.8c0-2.5,1.3-4.9,4-4.9c2.3,0,3.3,1.7,3.5,2.9H200
		c-0.3-1.1-1-2.1-2.5-2.1c-2,0-3.1,1.7-3.1,4c0,2.2,1,4,3,4c1.3,0,2.2-0.7,2.6-2.1H200.9z"/>
	<path class="st2" d="M203.1,42.9c0-1.5,0-2.2,0-2.5h0.9c0,0.3,0,0.9,0,2.1c0.5-1.4,1.7-2.2,3.2-2.3v1c-1.9,0.1-3.2,1.5-3.2,3.6v4.8
		h-0.9V42.9z"/>
	<path class="st2" d="M209.1,45.1c0,2.4,1.2,3.8,3,3.8c1.7,0,2.3-1,2.6-1.7h0.9c-0.4,1.2-1.4,2.6-3.6,2.6c-2.8,0-3.9-2.4-3.9-4.7
		c0-2.6,1.3-4.9,4-4.9c2.8,0,3.7,2.4,3.7,4.2c0,0.3,0,0.5,0,0.8H209.1z M214.9,44.3c0-1.8-1-3.3-2.8-3.3c-1.9,0-2.8,1.3-3,3.3H214.9
		z"/>
	<path class="st2" d="M224.4,47.8c0,0.8,0.1,1.5,0.1,1.7h-0.9c-0.1-0.2-0.1-0.6-0.2-1.4c-0.3,0.7-1.1,1.6-3,1.6
		c-2.1,0-3.1-1.4-3.1-2.8c0-2,1.6-2.9,4.3-2.9c0.8,0,1.4,0,1.7,0v-0.9c0-0.9-0.3-2.2-2.4-2.2c-1.9,0-2.1,1-2.3,1.7h-0.9
		c0.1-1,0.7-2.6,3.3-2.6c2.1,0,3.3,0.9,3.3,2.9V47.8z M223.5,44.9c-0.3,0-1.2,0-1.8,0c-2,0-3.3,0.5-3.3,2.1c0,1.2,0.8,2,2.1,2
		c2.6,0,3-1.7,3-3.7V44.9z"/>
	<path class="st2" d="M226,40.4h1.7v-2.9h0.9v2.9h2.2v0.9h-2.2v6c0,1,0.2,1.6,1.1,1.6c0.3,0,0.7,0,1-0.1v0.8
		c-0.3,0.1-0.8,0.2-1.1,0.2c-1.2,0-1.8-0.6-1.8-2.1v-6.4H226V40.4z"/>
	<path class="st2" d="M232.7,36h0.9v1.8h-0.9V36z M232.7,40.4h0.9v9.2h-0.9V40.4z"/>
	<path class="st2" d="M236.5,40.4c1.5,4.2,2.5,7.1,2.9,8.3h0c0.2-0.7,1.2-3.4,3-8.3h1l-3.5,9.2h-1.1l-3.3-9.2H236.5z"/>
	<path class="st2" d="M253,43.2h-6.6v5.4h7.2l-0.1,0.9h-8V36.7h7.9v0.9h-6.9v4.7h6.6V43.2z"/>
</g>
<g>
	<path class="st2" d="M137,17.3h4.6l6,8.7v-8.7h4.6v15.8h-4.6l-5.9-8.7v8.7H137V17.3z"/>
	<path class="st2" d="M159.1,25.3l-4.2-0.4c0.2-0.7,0.4-1.3,0.7-1.7c0.3-0.4,0.7-0.8,1.3-1.1c0.4-0.2,1-0.4,1.7-0.5
		c0.7-0.1,1.5-0.2,2.3-0.2c1.3,0,2.4,0.1,3.2,0.2c0.8,0.1,1.5,0.5,2,0.9c0.4,0.3,0.7,0.8,0.9,1.4s0.3,1.2,0.3,1.7v5.1
		c0,0.5,0,1,0.1,1.3c0.1,0.3,0.2,0.7,0.4,1.2h-4.1c-0.2-0.3-0.3-0.5-0.3-0.7s-0.1-0.4-0.2-0.7c-0.6,0.6-1.1,0.9-1.7,1.2
		c-0.8,0.3-1.7,0.5-2.7,0.5c-1.4,0-2.4-0.3-3.1-0.9c-0.7-0.6-1.1-1.4-1.1-2.3c0-0.9,0.3-1.6,0.8-2.1c0.5-0.6,1.5-1,2.8-1.3
		c1.6-0.3,2.7-0.6,3.2-0.7c0.5-0.1,1-0.3,1.6-0.5c0-0.5-0.1-0.9-0.3-1.1c-0.2-0.2-0.6-0.3-1.2-0.3c-0.7,0-1.3,0.1-1.6,0.3
		C159.5,24.5,159.3,24.8,159.1,25.3z M162.9,27.6c-0.6,0.2-1.2,0.4-1.9,0.6c-0.9,0.2-1.5,0.5-1.7,0.7c-0.2,0.2-0.4,0.5-0.4,0.8
		c0,0.3,0.1,0.6,0.4,0.8c0.2,0.2,0.6,0.3,1.1,0.3c0.5,0,0.9-0.1,1.4-0.4s0.7-0.5,0.9-0.9s0.3-0.8,0.3-1.3V27.6z"/>
	<path class="st2" d="M169.9,21.6h4.1v1.7c0.6-0.7,1.2-1.2,1.8-1.5c0.6-0.3,1.3-0.4,2.2-0.4c0.9,0,1.6,0.2,2.2,0.5
		c0.5,0.3,1,0.8,1.3,1.4c0.7-0.7,1.3-1.3,1.9-1.5c0.6-0.3,1.3-0.4,2.1-0.4c1.2,0,2.2,0.4,2.9,1.1c0.7,0.7,1,1.9,1,3.4v7.2h-4.4v-6.5
		c0-0.5-0.1-0.9-0.3-1.2c-0.3-0.4-0.7-0.6-1.1-0.6c-0.5,0-0.9,0.2-1.2,0.6c-0.3,0.4-0.5,1-0.5,1.8v5.9h-4.4v-6.3c0-0.5,0-0.8-0.1-1
		c-0.1-0.3-0.3-0.5-0.5-0.7c-0.2-0.2-0.5-0.3-0.8-0.3c-0.5,0-0.9,0.2-1.2,0.6c-0.3,0.4-0.5,1-0.5,1.9v5.8h-4.4V21.6z"/>
	<path class="st2" d="M204.6,28.4h-8.8c0.1,0.7,0.3,1.2,0.6,1.6c0.4,0.5,1,0.7,1.7,0.7c0.4,0,0.8-0.1,1.2-0.3
		c0.2-0.1,0.5-0.4,0.8-0.7l4.3,0.4c-0.7,1.2-1.5,2-2.4,2.5c-0.9,0.5-2.3,0.7-4,0.7c-1.5,0-2.7-0.2-3.6-0.6c-0.9-0.4-1.6-1.1-2.2-2
		c-0.6-0.9-0.9-2-0.9-3.3c0-1.8,0.6-3.2,1.7-4.3c1.1-1.1,2.7-1.7,4.8-1.7c1.6,0,2.9,0.2,3.9,0.7c0.9,0.5,1.7,1.2,2.2,2.2
		c0.5,0.9,0.7,2.2,0.7,3.7V28.4z M200.2,26.3c-0.1-0.8-0.3-1.5-0.7-1.8c-0.4-0.4-0.9-0.5-1.5-0.5c-0.7,0-1.3,0.3-1.7,0.8
		c-0.3,0.3-0.4,0.9-0.5,1.5H200.2z"/>
	<path class="st2" d="M206.8,17.3h4.4v15.8h-4.4V17.3z"/>
	<path class="st2" d="M226.7,28.4h-8.8c0.1,0.7,0.3,1.2,0.6,1.6c0.4,0.5,1,0.7,1.7,0.7c0.4,0,0.8-0.1,1.2-0.3
		c0.2-0.1,0.5-0.4,0.8-0.7l4.3,0.4c-0.7,1.2-1.5,2-2.4,2.5s-2.3,0.7-4,0.7c-1.5,0-2.7-0.2-3.6-0.6c-0.9-0.4-1.6-1.1-2.2-2
		c-0.6-0.9-0.9-2-0.9-3.3c0-1.8,0.6-3.2,1.7-4.3c1.1-1.1,2.7-1.7,4.8-1.7c1.6,0,2.9,0.2,3.9,0.7c0.9,0.5,1.7,1.2,2.2,2.2
		c0.5,0.9,0.7,2.2,0.7,3.7V28.4z M222.2,26.3c-0.1-0.8-0.3-1.5-0.7-1.8c-0.4-0.4-0.9-0.5-1.5-0.5c-0.7,0-1.3,0.3-1.7,0.8
		c-0.3,0.3-0.4,0.9-0.5,1.5H222.2z"/>
	<path class="st2" d="M228,29.9l4.4-0.4c0.2,0.5,0.4,0.9,0.8,1.1c0.3,0.2,0.8,0.3,1.3,0.3c0.6,0,1-0.1,1.4-0.4
		c0.3-0.2,0.4-0.4,0.4-0.7c0-0.3-0.2-0.6-0.5-0.7c-0.2-0.1-0.9-0.3-1.9-0.5c-1.5-0.3-2.6-0.5-3.2-0.7c-0.6-0.2-1.1-0.6-1.5-1.1
		c-0.4-0.5-0.6-1.2-0.6-1.8c0-0.8,0.2-1.4,0.7-2c0.4-0.5,1-1,1.8-1.2c0.8-0.3,1.8-0.4,3.1-0.4c1.4,0,2.4,0.1,3,0.3
		c0.7,0.2,1.2,0.5,1.6,1c0.4,0.4,0.8,1,1.1,1.8l-4.2,0.4c-0.1-0.4-0.3-0.6-0.5-0.8c-0.3-0.2-0.8-0.3-1.3-0.3c-0.5,0-0.9,0.1-1.1,0.3
		c-0.2,0.2-0.3,0.4-0.3,0.6c0,0.3,0.1,0.5,0.4,0.6c0.3,0.1,0.9,0.3,1.9,0.4c1.5,0.2,2.5,0.4,3.3,0.7c0.7,0.3,1.3,0.7,1.6,1.3
		c0.4,0.5,0.6,1.1,0.6,1.8c0,0.7-0.2,1.3-0.6,1.9c-0.4,0.6-1,1.1-1.9,1.5c-0.9,0.4-2,0.6-3.5,0.6c-2.1,0-3.6-0.3-4.5-0.9
		C228.8,31.8,228.2,31,228,29.9z"/>
	<path class="st2" d="M241.4,29.9l4.4-0.4c0.2,0.5,0.4,0.9,0.8,1.1c0.3,0.2,0.8,0.3,1.3,0.3c0.6,0,1-0.1,1.4-0.4
		c0.3-0.2,0.4-0.4,0.4-0.7c0-0.3-0.2-0.6-0.5-0.7c-0.2-0.1-0.9-0.3-1.9-0.5c-1.5-0.3-2.6-0.5-3.2-0.7c-0.6-0.2-1.1-0.6-1.5-1.1
		c-0.4-0.5-0.6-1.2-0.6-1.8c0-0.8,0.2-1.4,0.7-2c0.4-0.5,1-1,1.8-1.2c0.8-0.3,1.8-0.4,3.1-0.4c1.4,0,2.4,0.1,3,0.3
		c0.7,0.2,1.2,0.5,1.6,1s0.8,1,1.1,1.8l-4.2,0.4c-0.1-0.4-0.3-0.6-0.5-0.8c-0.3-0.2-0.8-0.3-1.3-0.3c-0.5,0-0.9,0.1-1.1,0.3
		c-0.2,0.2-0.3,0.4-0.3,0.6c0,0.3,0.1,0.5,0.4,0.6c0.3,0.1,0.9,0.3,1.9,0.4c1.5,0.2,2.5,0.4,3.3,0.7c0.7,0.3,1.3,0.7,1.6,1.3
		c0.4,0.5,0.6,1.1,0.6,1.8c0,0.7-0.2,1.3-0.6,1.9c-0.4,0.6-1,1.1-1.9,1.5c-0.9,0.4-2,0.6-3.5,0.6c-2.1,0-3.6-0.3-4.5-0.9
		C242.3,31.8,241.7,31,241.4,29.9z"/>
</g>
</svg>
