<?xml version="1.0" encoding="utf-8"?>
<!-- Generator: Adobe Illustrator 22.1.0, SVG Export Plug-In . SVG Version: 6.00 Build 0)  -->
<svg version="1.1" xmlns="http://www.w3.org/2000/svg" xmlns:xlink="http://www.w3.org/1999/xlink" x="0px" y="0px"
	 viewBox="0 0 142.5 44.5" style="enable-background:new 0 0 142.5 44.5;" xml:space="preserve">
<style type="text/css">
	.st0{display:none;}
	.st1{display:inline;fill:#E2E2E2;}
	.st2{fill:#FFFFFF;}
	.st3{fill:#7FC6CB;}
	.st4{clip-path:url(#SVGID_2_);fill:#7C76DB;}
	.st5{clip-path:url(#SVGID_2_);fill:#67E4AA;}
</style>
<g id="background" class="st0">
	<rect id="background_color" x="-10.3" class="st1" width="152.8" height="44.5"/>
</g>
<g id="logo">
	<g id="always_be_creative">
		<path class="st2" d="M65.2,32.1c0,0.4,0,0.7,0.1,0.8h-0.4c0-0.1-0.1-0.3-0.1-0.7c-0.1,0.3-0.5,0.8-1.4,0.8c-1,0-1.4-0.6-1.4-1.3
			c0-0.9,0.7-1.4,2-1.4c0.4,0,0.6,0,0.8,0v-0.4c0-0.4-0.1-1-1.1-1c-0.9,0-1,0.5-1.1,0.8h-0.4c0.1-0.5,0.3-1.2,1.5-1.2
			c1,0,1.5,0.4,1.5,1.4V32.1z M64.8,30.7c-0.2,0-0.6,0-0.8,0c-1,0-1.5,0.2-1.5,1c0,0.5,0.4,0.9,1,0.9c1.2,0,1.4-0.8,1.4-1.7V30.7z"
			/>
		<path class="st2" d="M66.7,32.9v-6.3h0.4v6.3H66.7z"/>
		<path class="st2" d="M68.4,28.6c0.6,2.2,1,3.5,1.1,3.9h0c0.1-0.3,0.5-1.7,1.2-3.9h0.5c0.8,2.7,1,3.4,1.1,3.8h0
			c0.1-0.5,0.3-1.1,1.1-3.8h0.5l-1.4,4.3H72c-0.5-1.5-1-3.4-1.1-3.8h0c-0.1,0.4-0.6,2-1.1,3.8h-0.5L68,28.6H68.4z"/>
		<path class="st2" d="M77.6,32.1c0,0.4,0,0.7,0.1,0.8h-0.4c0-0.1-0.1-0.3-0.1-0.7c-0.1,0.3-0.5,0.8-1.4,0.8c-1,0-1.4-0.6-1.4-1.3
			c0-0.9,0.7-1.4,2-1.4c0.4,0,0.6,0,0.8,0v-0.4c0-0.4-0.1-1-1.1-1c-0.9,0-1,0.5-1.1,0.8h-0.4c0.1-0.5,0.3-1.2,1.5-1.2
			c1,0,1.5,0.4,1.5,1.4V32.1z M77.2,30.7c-0.2,0-0.6,0-0.8,0c-1,0-1.5,0.2-1.5,1c0,0.5,0.4,0.9,1,0.9c1.2,0,1.4-0.8,1.4-1.7V30.7z"
			/>
		<path class="st2" d="M78.9,28.6c0.9,2.5,1.2,3.5,1.4,3.9h0c0.2-0.5,0.5-1.5,1.4-3.9h0.4l-1.6,4.6c-0.5,1.3-0.8,1.6-1.5,1.6
			c-0.2,0-0.3,0-0.4,0v-0.4c0.1,0,0.2,0,0.4,0c0.6,0,0.8-0.3,1.1-1.2l-1.6-4.5H78.9z"/>
		<path class="st2" d="M83.1,31.7c0.1,0.6,0.5,0.9,1.2,0.9c0.8,0,1.1-0.4,1.1-0.8c0-0.5-0.2-0.7-1.2-1c-1.1-0.3-1.4-0.6-1.4-1.2
			c0-0.6,0.4-1.1,1.4-1.1c1,0,1.4,0.6,1.5,1.2h-0.4c-0.1-0.4-0.4-0.8-1.1-0.8c-0.7,0-1,0.4-1,0.7c0,0.4,0.2,0.6,1.1,0.8
			c1.2,0.3,1.5,0.7,1.5,1.3c0,0.8-0.6,1.3-1.5,1.3c-1,0-1.5-0.5-1.7-1.3H83.1z"/>
		<path class="st2" d="M89.1,26.5h0.4v2.8c0.2-0.4,0.6-0.8,1.5-0.8c1,0,1.8,0.8,1.8,2.2c0,1.4-0.7,2.4-1.9,2.4
			c-0.7,0-1.1-0.3-1.4-0.8c0,0.3,0,0.6,0,0.7h-0.4c0-0.5,0-1,0-1.5V26.5z M92.3,30.7c0-1.1-0.5-1.8-1.4-1.8c-1.1,0-1.5,0.7-1.5,1.9
			c0,1,0.3,1.8,1.4,1.8C91.8,32.6,92.3,31.9,92.3,30.7z"/>
		<path class="st2" d="M94,30.8c0,1.1,0.6,1.8,1.4,1.8c0.8,0,1.1-0.5,1.2-0.8h0.4c-0.2,0.6-0.6,1.2-1.7,1.2c-1.3,0-1.8-1.1-1.8-2.2
			c0-1.2,0.6-2.3,1.9-2.3c1.3,0,1.7,1.1,1.7,2c0,0.1,0,0.2,0,0.4H94z M96.7,30.4c0-0.9-0.5-1.5-1.3-1.5c-0.9,0-1.3,0.6-1.4,1.5H96.7
			z"/>
		<path class="st2" d="M103.6,31.6c-0.2,0.8-0.7,1.4-1.7,1.4c-1.1,0-1.8-0.8-1.8-2.2c0-1.2,0.6-2.3,1.9-2.3c1.1,0,1.5,0.8,1.6,1.4
			h-0.4c-0.1-0.5-0.5-1-1.2-1c-0.9,0-1.4,0.8-1.4,1.9c0,1,0.5,1.9,1.4,1.9c0.6,0,1-0.3,1.2-1H103.6z"/>
		<path class="st2" d="M104.6,29.8c0-0.7,0-1,0-1.2h0.4c0,0.1,0,0.4,0,1c0.2-0.6,0.8-1,1.5-1.1V29c-0.9,0.1-1.5,0.7-1.5,1.7v2.2
			h-0.4V29.8z"/>
		<path class="st2" d="M107.5,30.8c0,1.1,0.6,1.8,1.4,1.8c0.8,0,1.1-0.5,1.2-0.8h0.4c-0.2,0.6-0.6,1.2-1.7,1.2
			c-1.3,0-1.8-1.1-1.8-2.2c0-1.2,0.6-2.3,1.9-2.3c1.3,0,1.7,1.1,1.7,2c0,0.1,0,0.2,0,0.4H107.5z M110.2,30.4c0-0.9-0.5-1.5-1.3-1.5
			c-0.9,0-1.3,0.6-1.4,1.5H110.2z"/>
		<path class="st2" d="M114.6,32.1c0,0.4,0,0.7,0.1,0.8h-0.4c0-0.1-0.1-0.3-0.1-0.7c-0.1,0.3-0.5,0.8-1.4,0.8c-1,0-1.4-0.6-1.4-1.3
			c0-0.9,0.7-1.4,2-1.4c0.4,0,0.6,0,0.8,0v-0.4c0-0.4-0.1-1-1.1-1c-0.9,0-1,0.5-1.1,0.8h-0.4c0.1-0.5,0.3-1.2,1.5-1.2
			c1,0,1.5,0.4,1.5,1.4V32.1z M114.2,30.7c-0.2,0-0.6,0-0.8,0c-1,0-1.5,0.2-1.5,1c0,0.5,0.4,0.9,1,0.9c1.2,0,1.4-0.8,1.4-1.7V30.7z"
			/>
		<path class="st2" d="M115.4,28.6h0.8v-1.3h0.4v1.3h1V29h-1v2.8c0,0.5,0.1,0.8,0.5,0.8c0.1,0,0.3,0,0.4-0.1v0.4
			c-0.1,0.1-0.4,0.1-0.5,0.1c-0.6,0-0.9-0.3-0.9-1v-3h-0.8V28.6z"/>
		<path class="st2" d="M118.5,26.5h0.4v0.8h-0.4V26.5z M118.5,28.6h0.4v4.3h-0.4V28.6z"/>
		<path class="st2" d="M120.3,28.6c0.7,2,1.2,3.3,1.3,3.9h0c0.1-0.3,0.6-1.6,1.4-3.9h0.5l-1.6,4.3h-0.5l-1.5-4.3H120.3z"/>
		<path class="st2" d="M128,29.9H125v2.5h3.4l-0.1,0.4h-3.8v-6h3.7v0.4H125v2.2h3.1V29.9z"/>
	</g>
	<g id="nameless">
		<path class="st2" d="M62.4,12.7h2.1l2.8,4.1v-4.1h2.2v7.4h-2.2L64.5,16v4.1h-2.2V12.7z"/>
		<path class="st2" d="M72.7,16.4l-2-0.2c0.1-0.3,0.2-0.6,0.3-0.8c0.1-0.2,0.3-0.4,0.6-0.5c0.2-0.1,0.4-0.2,0.8-0.2
			c0.3-0.1,0.7-0.1,1.1-0.1c0.6,0,1.1,0,1.5,0.1c0.4,0.1,0.7,0.2,0.9,0.4c0.2,0.2,0.3,0.4,0.4,0.6s0.2,0.5,0.2,0.8v2.4
			c0,0.3,0,0.5,0,0.6s0.1,0.3,0.2,0.5h-1.9c-0.1-0.1-0.1-0.2-0.2-0.3c0-0.1,0-0.2-0.1-0.3c-0.3,0.3-0.5,0.4-0.8,0.6
			c-0.4,0.1-0.8,0.2-1.3,0.2c-0.6,0-1.1-0.1-1.5-0.4c-0.3-0.3-0.5-0.7-0.5-1.1c0-0.4,0.1-0.7,0.4-1c0.2-0.3,0.7-0.5,1.3-0.6
			c0.8-0.2,1.3-0.3,1.5-0.3c0.2-0.1,0.5-0.1,0.7-0.2c0-0.3-0.1-0.4-0.2-0.5s-0.3-0.2-0.6-0.2c-0.3,0-0.6,0.1-0.8,0.2
			C72.9,16,72.8,16.2,72.7,16.4z M74.5,17.5c-0.3,0.1-0.6,0.2-0.9,0.3c-0.4,0.1-0.7,0.2-0.8,0.3c-0.1,0.1-0.2,0.2-0.2,0.4
			c0,0.2,0.1,0.3,0.2,0.4s0.3,0.2,0.5,0.2c0.2,0,0.4-0.1,0.6-0.2s0.3-0.2,0.4-0.4s0.1-0.4,0.1-0.6V17.5z"/>
		<path class="st2" d="M77.8,14.7h1.9v0.8c0.3-0.3,0.6-0.6,0.8-0.7c0.3-0.1,0.6-0.2,1-0.2c0.4,0,0.8,0.1,1,0.2
			c0.2,0.2,0.5,0.4,0.6,0.7c0.3-0.4,0.6-0.6,0.9-0.7c0.3-0.1,0.6-0.2,1-0.2c0.6,0,1,0.2,1.3,0.5c0.3,0.3,0.5,0.9,0.5,1.6v3.4h-2.1
			V17c0-0.2,0-0.4-0.1-0.5c-0.1-0.2-0.3-0.3-0.5-0.3c-0.2,0-0.4,0.1-0.6,0.3c-0.1,0.2-0.2,0.5-0.2,0.8v2.8h-2.1v-3
			c0-0.2,0-0.4,0-0.5c0-0.1-0.1-0.2-0.2-0.3c-0.1-0.1-0.2-0.1-0.4-0.1c-0.2,0-0.4,0.1-0.6,0.3s-0.2,0.5-0.2,0.9v2.7h-2.1V14.7z"/>
		<path class="st2" d="M94,17.9h-4.1c0,0.3,0.1,0.6,0.3,0.7c0.2,0.2,0.5,0.3,0.8,0.3c0.2,0,0.4-0.1,0.6-0.2c0.1-0.1,0.2-0.2,0.4-0.3
			l2,0.2c-0.3,0.5-0.7,0.9-1.1,1.2c-0.4,0.2-1.1,0.4-1.9,0.4c-0.7,0-1.3-0.1-1.7-0.3c-0.4-0.2-0.7-0.5-1-1c-0.3-0.4-0.4-0.9-0.4-1.5
			c0-0.8,0.3-1.5,0.8-2c0.5-0.5,1.3-0.8,2.2-0.8c0.8,0,1.4,0.1,1.8,0.3s0.8,0.6,1,1c0.2,0.4,0.3,1,0.3,1.7V17.9z M91.9,16.9
			c0-0.4-0.1-0.7-0.3-0.9c-0.2-0.2-0.4-0.3-0.7-0.3c-0.3,0-0.6,0.1-0.8,0.4c-0.1,0.2-0.2,0.4-0.2,0.7H91.9z"/>
		<path class="st2" d="M95,12.7h2.1v7.4H95V12.7z"/>
		<path class="st2" d="M104.4,17.9h-4.1c0,0.3,0.1,0.6,0.3,0.7c0.2,0.2,0.5,0.3,0.8,0.3c0.2,0,0.4-0.1,0.6-0.2
			c0.1-0.1,0.2-0.2,0.4-0.3l2,0.2c-0.3,0.5-0.7,0.9-1.1,1.2c-0.4,0.2-1.1,0.4-1.9,0.4c-0.7,0-1.3-0.1-1.7-0.3c-0.4-0.2-0.7-0.5-1-1
			c-0.3-0.4-0.4-0.9-0.4-1.5c0-0.8,0.3-1.5,0.8-2c0.5-0.5,1.3-0.8,2.2-0.8c0.8,0,1.4,0.1,1.8,0.3s0.8,0.6,1,1s0.3,1,0.3,1.7V17.9z
			 M102.3,16.9c0-0.4-0.1-0.7-0.3-0.9c-0.2-0.2-0.4-0.3-0.7-0.3c-0.3,0-0.6,0.1-0.8,0.4c-0.1,0.2-0.2,0.4-0.2,0.7H102.3z"/>
		<path class="st2" d="M104.9,18.6l2-0.2c0.1,0.2,0.2,0.4,0.4,0.5c0.2,0.1,0.4,0.2,0.6,0.2c0.3,0,0.5-0.1,0.6-0.2
			c0.1-0.1,0.2-0.2,0.2-0.3c0-0.1-0.1-0.3-0.2-0.3c-0.1-0.1-0.4-0.1-0.9-0.2c-0.7-0.1-1.2-0.2-1.5-0.3c-0.3-0.1-0.5-0.3-0.7-0.5
			s-0.3-0.5-0.3-0.9c0-0.4,0.1-0.7,0.3-0.9c0.2-0.3,0.5-0.4,0.8-0.6c0.4-0.1,0.8-0.2,1.4-0.2c0.6,0,1.1,0,1.4,0.1
			c0.3,0.1,0.6,0.2,0.8,0.5c0.2,0.2,0.4,0.5,0.5,0.8l-1.9,0.2c-0.1-0.2-0.1-0.3-0.3-0.4c-0.2-0.1-0.4-0.2-0.6-0.2
			c-0.2,0-0.4,0-0.5,0.1c-0.1,0.1-0.2,0.2-0.2,0.3c0,0.1,0.1,0.2,0.2,0.3c0.1,0.1,0.4,0.1,0.9,0.2c0.7,0.1,1.2,0.2,1.5,0.3
			s0.6,0.3,0.8,0.6c0.2,0.3,0.3,0.5,0.3,0.8c0,0.3-0.1,0.6-0.3,0.9c-0.2,0.3-0.5,0.5-0.9,0.7c-0.4,0.2-1,0.3-1.6,0.3
			c-1,0-1.7-0.1-2.1-0.4C105.3,19.5,105.1,19.1,104.9,18.6z"/>
		<path class="st2" d="M111.3,18.6l2-0.2c0.1,0.2,0.2,0.4,0.4,0.5c0.2,0.1,0.4,0.2,0.6,0.2c0.3,0,0.5-0.1,0.6-0.2
			c0.1-0.1,0.2-0.2,0.2-0.3c0-0.1-0.1-0.3-0.2-0.3c-0.1-0.1-0.4-0.1-0.9-0.2c-0.7-0.1-1.2-0.2-1.5-0.3c-0.3-0.1-0.5-0.3-0.7-0.5
			s-0.3-0.5-0.3-0.9c0-0.4,0.1-0.7,0.3-0.9c0.2-0.3,0.5-0.4,0.8-0.6c0.4-0.1,0.8-0.2,1.4-0.2c0.6,0,1.1,0,1.4,0.1
			c0.3,0.1,0.6,0.2,0.8,0.5c0.2,0.2,0.4,0.5,0.5,0.8l-1.9,0.2c-0.1-0.2-0.1-0.3-0.3-0.4c-0.2-0.1-0.4-0.2-0.6-0.2
			c-0.2,0-0.4,0-0.5,0.1c-0.1,0.1-0.2,0.2-0.2,0.3c0,0.1,0.1,0.2,0.2,0.3c0.1,0.1,0.4,0.1,0.9,0.2c0.7,0.1,1.2,0.2,1.5,0.3
			s0.6,0.3,0.8,0.6c0.2,0.3,0.3,0.5,0.3,0.8c0,0.3-0.1,0.6-0.3,0.9c-0.2,0.3-0.5,0.5-0.9,0.7c-0.4,0.2-1,0.3-1.6,0.3
			c-1,0-1.7-0.1-2.1-0.4S111.4,19.1,111.3,18.6z"/>
	</g>
	<ellipse id="blue_circle" class="st3" cx="35.8" cy="22.2" rx="23.3" ry="19.5"/>
	<g id="top_and_bottom_colors">
		<defs>
			<ellipse id="SVGID_1_" cx="35.8" cy="22.2" rx="23.3" ry="19.5"/>
		</defs>
		<clipPath id="SVGID_2_">
			<use xlink:href="#SVGID_1_"  style="overflow:visible;"/>
		</clipPath>
		<path class="st4" d="M23.8,5.5c2.2,2.4,4.4,4.8,6.6,7.2c2.1-1.2,5.6-2.7,10.1-2.9c9.8-0.4,16.6,6,17.9,7.3c0.6-1.3,1.3-3.2,1-5.3
			C58.4,4.9,49,1.2,43.4,0.2C33.6-1.4,25.8,4,23.8,5.5z"/>
		<path class="st5" d="M44.4,27.6c2.6,2.8,5.3,5.6,7.9,8.4c0.1,3.2-0.2,8-3.3,11.2c-9.7,9.8-39.3-3.1-39-11c0.1-2.3,2.6-4.1,5-5.3
			c2.3,1.1,9.3,4.2,18,2.3C38.5,32,42.4,29.2,44.4,27.6z"/>
	</g>
	<g id="guestion_mark">
		<path class="st2" d="M37.4,24h-3.3v-0.3c0-0.6,0.1-1,0.2-1.4s0.3-0.7,0.6-1s0.8-0.8,1.7-1.5c0.5-0.4,0.7-0.7,0.7-1.1
			S37.2,18.2,37,18s-0.5-0.3-0.9-0.3c-0.4,0-0.8,0.1-1,0.4s-0.4,0.8-0.5,1.4l-3.4-0.4c0.1-1.3,0.6-2.3,1.4-3s2-1.1,3.7-1.1
			c1.3,0,2.3,0.3,3.1,0.8c1.1,0.7,1.6,1.7,1.6,2.9c0,0.5-0.1,1-0.4,1.4s-0.8,1-1.7,1.7c-0.6,0.5-1,0.8-1.1,1.1S37.4,23.6,37.4,24z
			 M33.9,24.9h3.6v3.2h-3.6V24.9z"/>
	</g>
</g>
</svg>
